<svg width="88" height="15" viewBox="0 0 88 15" fill="none" xmlns="http://www.w3.org/2000/svg">
<path d="M3.8385 0.515354C5.20093 0.515354 6.28495 0.793763 7.09056 1.35058C7.89617 1.89556 8.29897 2.71301 8.29897 3.80296C8.29897 4.60857 8.09757 5.28386 7.69477 5.82883C7.30381 6.36195 6.76476 6.76476 6.07762 7.03725C5.40233 7.29789 4.62634 7.4282 3.74964 7.4282L3.34091 6.04208C4.41901 6.04208 5.37271 6.19017 6.20202 6.48635C7.04317 6.78253 7.70661 7.20903 8.19235 7.76585C8.67809 8.31082 8.92095 8.96834 8.92095 9.73841C8.92095 10.4492 8.79063 11.0535 8.52999 11.551C8.2812 12.0368 7.93763 12.4337 7.49929 12.7417C7.07279 13.0379 6.58705 13.257 6.04208 13.3992C5.49711 13.5295 4.93437 13.5947 4.35385 13.5947H0V0.515354H3.8385ZM4.1406 5.86437C4.65003 5.86437 5.02322 5.71036 5.26016 5.40233C5.50896 5.0943 5.63335 4.74481 5.63335 4.35385C5.63335 3.90366 5.47934 3.56601 5.17131 3.34091C4.87513 3.11582 4.47232 3.00327 3.96289 3.00327H2.57677V5.86437H4.1406ZM4.22946 11.1956C4.60857 11.1956 4.95214 11.1482 5.26016 11.0535C5.56819 10.9468 5.81106 10.7869 5.98877 10.5736C6.16648 10.3485 6.25533 10.0701 6.25533 9.73841C6.25533 9.3593 6.1487 9.07497 5.93545 8.88541C5.7222 8.68401 5.4438 8.54777 5.10023 8.47668C4.7685 8.39375 4.41901 8.35229 4.05175 8.35229H2.57677V11.1956H4.22946Z" fill="#D53451"/>
<path d="M13.283 0.515354H15.8598V11.1068H22.0085V13.5947H13.283V0.515354Z" fill="#D53451"/>
<path d="M45.7116 14.1278L35.7954 5.17131L36.5596 5.59781L36.6129 13.5947H34.0006V0H34.1072L43.8101 8.92095L43.2414 8.67216L43.1881 0.515354H45.7826V14.1278H45.7116Z" fill="#D53451"/>
<path d="M53.5403 5.17131L53.4692 5.82883L53.8602 5.33125L58.1252 0.515354H61.4661L56.0637 6.37973L61.4838 13.5947H58.214L54.18 8.01464L53.5403 8.65439V13.5947H50.928V0.515354H53.5403V5.17131Z" fill="#D53451"/>
<path d="M65.2175 0.515354H74.1385V3.00327H67.7943V5.79329H73.4099V8.2812H67.7943V11.1068H74.3873V13.5947H65.2175V0.515354Z" fill="#D53451"/>
<path d="M78.8303 0.515354H87.7512V3.00327H81.407V5.79329H87.0226V8.2812H81.407V11.1068H88V13.5947H78.8303V0.515354Z" fill="#D53451"/>
<path d="M26.9846 2.48804H29L29.6502 13.5948H26.5403L26.9846 2.48804Z" fill="#4AC9FF"/>
<path fill-rule="evenodd" clip-rule="evenodd" d="M27.6 1.55V0L28.4 0V1.55H27.6Z" fill="#FFC93E"/>
<path fill-rule="evenodd" clip-rule="evenodd" d="M28.8462 1.70805L29.2241 0.204832L30 0.399902L29.6221 1.90312L28.8462 1.70805Z" fill="#FFC93E"/>
<path fill-rule="evenodd" clip-rule="evenodd" d="M27.1538 1.70805L26.7759 0.204832L26 0.399902L26.3779 1.90312L27.1538 1.70805Z" fill="#FFC93E"/>
</svg>
